<svg width="159" height="54" viewBox="0 0 159 54" fill="none" xmlns="http://www.w3.org/2000/svg">
<path fill-rule="evenodd" clip-rule="evenodd" d="M28.1254 12.7923C25.9969 11.9107 23.6942 11.5305 21.3953 11.6811C19.0963 11.8318 16.8629 12.5094 14.8677 13.6613L12.8546 14.8235L10.5301 10.7974L12.5432 9.63512C15.1559 8.12666 18.0807 7.23942 21.0912 7.04212C24.1017 6.84479 27.1172 7.34266 29.9045 8.49719C32.6918 9.65175 35.1762 11.432 37.1655 13.7003C39.1545 15.9685 40.5954 18.664 41.3764 21.5782C42.1571 24.4923 42.2572 27.5471 41.6686 30.5061C41.0799 33.4651 39.8186 36.249 37.9819 38.6426C36.1452 41.0361 33.7827 42.9751 31.0769 44.3093C28.3711 45.6436 24.881 46.3377 22.3776 46.3377C19.8742 46.3377 18.4124 45.9622 16.4928 45.1673C14.6271 44.3945 12.9319 43.2619 11.504 41.8339C10.076 40.406 8.94336 38.7105 8.17055 36.8448C7.39778 34.9793 7 32.9796 7 30.9603C7 28.9409 7.39778 26.9412 8.17055 25.0755C8.94336 23.2099 10.076 21.5147 11.504 20.0867C12.9319 18.6588 14.6271 17.5261 16.4928 16.7533C18.3585 15.9805 20.3581 15.5828 22.3775 15.5828C24.3969 15.5828 26.3965 15.9805 28.2622 16.7533C30.1279 17.5261 31.8231 18.6588 33.251 20.0867C34.6789 21.5147 35.8115 23.2099 36.5843 25.0755C36.9169 25.8781 37.1798 26.7053 37.3718 27.5484C37.4655 25.948 37.3028 24.3385 36.8858 22.7814C36.2893 20.5561 35.1892 18.4977 33.6701 16.7656C32.1511 15.0334 30.2539 13.674 28.1254 12.7923ZM13.0928 36.3356C13.3565 31.3377 17.4926 27.3663 22.5563 27.3663C27.4242 27.3663 31.4349 31.0366 31.972 35.7609C32.0858 35.5333 32.1917 35.3016 32.2893 35.0659C32.8285 33.7642 33.106 32.3692 33.106 30.9603C33.106 29.5514 32.8285 28.1563 32.2893 26.8546C31.7502 25.553 30.9599 24.3703 29.9637 23.3741C28.9675 22.3778 27.7847 21.5876 26.4831 21.0484C25.1815 20.5093 23.7864 20.2318 22.3775 20.2318C20.9686 20.2318 19.5735 20.5093 18.2719 21.0484C16.9703 21.5876 15.7876 22.3778 14.7913 23.3741C13.7951 24.3703 13.0048 25.553 12.4657 26.8546C11.9265 28.1563 11.649 29.5514 11.649 30.9603C11.649 32.3692 11.9265 33.7642 12.4657 35.0659C12.6469 35.5034 12.8565 35.9275 13.0928 36.3356ZM27.3841 36.843C27.3841 39.5094 25.2226 41.6709 22.5563 41.6709C19.89 41.6709 17.7285 39.5094 17.7285 36.843C17.7285 34.1768 19.89 32.0153 22.5563 32.0153C25.2226 32.0153 27.3841 34.1768 27.3841 36.843Z" fill="#7C3AED"/>
<path d="M59.1887 14.5838H64.3423L58.7263 38.754H49.6625L44.0465 14.5838H49.2005L53.3949 34.4886H54.9942L59.1887 14.5838Z" fill="#0F172A"/>
<path d="M71.1408 28.6948C71.1644 29.7849 71.4487 30.5787 71.9937 31.0763C72.5623 31.5502 73.368 31.7872 74.4108 31.7872C76.6144 31.7872 78.5813 31.7161 80.3111 31.5739L81.3064 31.4673L81.3775 34.9863C78.6525 35.6497 76.1878 35.9816 73.9842 35.9816C71.3067 35.9816 69.3634 35.2707 68.155 33.8488C66.9463 32.427 66.3423 30.1166 66.3423 26.9176C66.3423 20.5433 68.9607 17.3562 74.1973 17.3562C79.3631 17.3562 81.9461 20.0339 81.9461 25.3892L81.5907 28.6948H71.1408ZM77.2542 25.0693C77.2542 23.6475 77.0293 22.6641 76.579 22.1191C76.1288 21.5504 75.3349 21.2661 74.1973 21.2661C73.0837 21.2661 72.2898 21.5623 71.816 22.1547C71.3657 22.7234 71.129 23.6949 71.105 25.0693H77.2542Z" fill="#0F172A"/>
<path d="M83.9462 35.7683V17.996H88.6735V19.8799C90.664 18.695 92.5597 17.9249 94.3607 17.5695V22.368C92.441 22.7708 90.7942 23.1855 89.4198 23.612L88.7089 23.8608V35.7683H83.9462Z" fill="#0F172A"/>
<path d="M107.593 24.0918H103.221V31.3784C103.221 32.0893 103.233 32.5988 103.257 32.9068C103.304 33.1912 103.434 33.44 103.647 33.6533C103.885 33.8665 104.24 33.9732 104.714 33.9732L107.415 33.9021L107.628 37.7055C106.041 38.0609 104.832 38.2387 104.003 38.2387C101.87 38.2387 100.413 37.7645 99.631 36.8168C98.8489 35.8451 98.4581 34.0679 98.4581 31.4851V24.0918H96.3606V20.0398H98.4581V15.0991H103.221V20.0398H107.593V24.0918Z" fill="#0F172A"/>
<path d="M109.628 39.1094V21.3372H114.391V39.1094H109.628ZM109.628 19.0623V14.2283H114.391V19.0623H109.628Z" fill="#0F172A"/>
<path d="M133.382 33.8488C133.382 35.8869 132.6 37.3914 131.036 38.363C129.472 39.3346 127.351 39.8203 124.674 39.8203C122.02 39.8203 119.97 39.4648 118.524 38.7539C117.102 38.0429 116.391 36.7516 116.391 34.8798C116.391 33.3868 117.245 31.9767 118.951 30.6499C118.074 30.0574 117.636 29.1569 117.636 27.9485C117.636 27.4746 117.991 26.6926 118.702 25.6026L119.022 25.105C117.411 23.9438 116.605 22.2377 116.605 19.9865C116.605 17.7117 117.28 16.0648 118.631 15.0459C120.005 14.0269 121.818 13.5175 124.069 13.5175C125.088 13.5175 126.095 13.636 127.091 13.8729L127.659 13.9796L133.382 13.8018V17.6051L130.716 17.3918C131.237 18.1975 131.498 19.0032 131.498 19.8088C131.498 22.1784 130.894 23.8135 129.685 24.7139C128.477 25.6144 126.581 26.0647 123.998 26.0647C123.453 26.0647 122.967 26.0172 122.541 25.9225C122.304 26.5386 122.185 27.048 122.185 27.4509C122.185 27.83 122.387 28.0907 122.79 28.2328C123.192 28.375 124.14 28.458 125.633 28.4817C128.619 28.5053 130.657 28.9082 131.747 29.6901C132.837 30.4486 133.382 31.8347 133.382 33.8488ZM121.083 34.382C121.083 35.4009 122.328 35.9105 124.815 35.9105C127.327 35.9105 128.583 35.3179 128.583 34.1331C128.583 33.4933 128.37 33.0789 127.944 32.8893C127.517 32.7234 126.616 32.6286 125.242 32.6047L122.043 32.3561C121.403 32.9959 121.083 33.6711 121.083 34.382ZM121.368 19.8444C121.368 21.5742 122.268 22.4391 124.069 22.4391C125.894 22.4391 126.806 21.5742 126.806 19.8444C126.806 18.0909 125.894 17.2141 124.069 17.2141C122.268 17.2141 121.368 18.0909 121.368 19.8444Z" fill="#0F172A"/>
<path d="M137.265 19.8087C138.521 18.1737 140.618 17.3562 143.557 17.3562C146.495 17.3562 148.592 18.1737 149.848 19.8087C151.104 21.4201 151.732 23.6949 151.732 26.6333C151.732 32.8653 149.007 35.9816 143.557 35.9816C138.107 35.9816 135.382 32.8653 135.382 26.6333C135.382 23.6949 136.01 21.4201 137.265 19.8087ZM140.927 30.6498C141.424 31.5028 142.301 31.9294 143.557 31.9294C144.813 31.9294 145.678 31.5028 146.152 30.6498C146.649 29.7967 146.898 28.4579 146.898 26.6333C146.898 24.8086 146.649 23.4817 146.152 22.6523C145.678 21.8229 144.813 21.4082 143.557 21.4082C142.301 21.4082 141.424 21.8229 140.927 22.6523C140.453 23.4817 140.216 24.8086 140.216 26.6333C140.216 28.4579 140.453 29.7967 140.927 30.6498Z" fill="#0F172A"/>
</svg>
